<?xml version="1.0" encoding="iso-8859-1"?>
<!-- Generator: Adobe Illustrator 19.0.0, SVG Export Plug-In . SVG Version: 6.00 Build 0)  -->
<svg version="1.1" id="Capa_1" xmlns="http://www.w3.org/2000/svg" xmlns:xlink="http://www.w3.org/1999/xlink" x="0px" y="0px"
	 viewBox="0 0 512 512" style="enable-background:new 0 0 512 512;" xml:space="preserve">
<g transform="translate(1 1)">
	<polygon style="fill:#FFE100;" points="212.328,400.086 212.328,246.466 400.086,246.466 400.086,109.915 297.673,109.915 
		297.673,7.502 7.501,7.502 7.501,502.499 400.086,502.499 400.086,400.086 	"/>
	<polygon style="fill:#FFA800;" points="374.482,502.499 400.086,502.499 400.086,109.915 374.482,109.915 	"/>
	<polygon style="fill:#63D3FD;" points="212.328,400.086 502.499,400.086 502.499,246.466 212.328,246.466 	"/>
	<polygon style="fill:#3DB9F9;" points="476.896,400.086 502.499,400.086 502.499,246.466 476.896,246.466 	"/>
	<polygon style="fill:#FDCC00;" points="400.086,109.915 297.673,109.915 297.673,7.502 	"/>
	<polygon style="fill:#FFFFFF;" points="7.501,502.499 33.104,502.499 33.104,7.502 7.501,7.502 	"/>
	<path d="M400.105,118.415c-0.005,0-0.013,0-0.02,0H297.673c-4.695,0-8.501-3.806-8.501-8.501V7.502
		c0-3.438,2.071-6.538,5.248-7.854c3.177-1.316,6.832-0.589,9.265,1.843l102.075,102.075c1.747,1.557,2.847,3.824,2.847,6.349
		C408.606,114.61,404.8,118.415,400.105,118.415z M306.174,101.413h73.388l-73.388-73.388V101.413z"/>
	<path d="M502.499,417.121H212.328c-4.695,0-8.501-3.806-8.501-8.501V237.931c0-4.695,3.806-8.501,8.501-8.501h290.171
		c4.695,0,8.501,3.806,8.501,8.501V408.62C511,413.314,507.194,417.121,502.499,417.121z M220.829,400.118h273.169V246.432H220.829
		V400.118z"/>
	<path d="M400.085,511H7.501C2.806,511-1,507.193-1,502.499V7.502c0-4.695,3.806-8.501,8.501-8.501h290.171
		c4.695,0,8.501,3.806,8.501,8.501v93.912h93.911c4.695,0,8.501,3.806,8.501,8.501v128.017c0,4.695-3.806,8.501-8.501,8.501H220.829
		V400.12h179.256c4.695,0,8.501,3.806,8.501,8.501V502.5C408.586,507.193,404.78,511,400.085,511z M16.002,493.998h375.581v-76.877
		H212.328c-4.695,0-8.501-3.806-8.501-8.501V237.931c0-4.695,3.806-8.501,8.501-8.501h179.256V118.415h-93.911
		c-4.695,0-8.501-3.806-8.501-8.501V16.002H16.002V493.998z"/>
	<path d="M246.465,382.983c-4.695,0-8.501-3.806-8.501-8.501V272.069c0-4.695,3.806-8.501,8.501-8.501
		c4.695,0,8.501,3.806,8.501,8.501v102.413C254.966,379.177,251.161,382.983,246.465,382.983z"/>
	<path d="M280.603,331.777h-34.137c-4.695,0-8.501-3.806-8.501-8.501v-51.207c0-4.695,3.806-8.501,8.501-8.501h34.137
		c14.1,0,25.57,11.47,25.57,25.569v17.069C306.174,320.306,294.702,331.777,280.603,331.777z M254.966,314.775h25.636
		c4.725,0,8.568-3.844,8.568-8.567v-17.07c0-4.725-3.844-8.567-8.568-8.567h-25.636L254.966,314.775L254.966,314.775z"/>
	<path d="M417.154,382.983c-4.695,0-8.501-3.806-8.501-8.501V272.069c0-4.695,3.806-8.501,8.501-8.501s8.501,3.806,8.501,8.501
		v102.413C425.655,379.177,421.849,382.983,417.154,382.983z"/>
	<path d="M451.292,331.777h-34.138c-4.695,0-8.501-3.806-8.501-8.501v-51.207c0-4.695,3.806-8.501,8.501-8.501h34.138
		c14.1,0,25.569,11.47,25.569,25.569v17.069C476.862,320.306,465.391,331.777,451.292,331.777z M425.655,314.775h25.637
		c4.725,0,8.567-3.844,8.567-8.567v-17.07c0-4.725-3.844-8.567-8.567-8.567h-25.637V314.775z"/>
	<path d="M331.81,382.983c-4.695,0-8.501-3.806-8.501-8.501V272.069c0-4.695,3.806-8.501,8.501-8.501
		c4.695,0,8.501,3.806,8.501,8.501v102.413C340.311,379.177,336.505,382.983,331.81,382.983z"/>
	<path d="M383.017,382.983c-4.695,0-8.501-3.806-8.501-8.501v-34.138c0-4.725-3.843-8.567-8.567-8.567H331.81
		c-4.695,0-8.501-3.806-8.501-8.501c0-4.695,3.806-8.501,8.501-8.501h34.138c14.1,0,25.569,11.47,25.569,25.569v34.138
		C391.518,379.177,387.711,382.983,383.017,382.983z"/>
</g>
<g>
</g>
<g>
</g>
<g>
</g>
<g>
</g>
<g>
</g>
<g>
</g>
<g>
</g>
<g>
</g>
<g>
</g>
<g>
</g>
<g>
</g>
<g>
</g>
<g>
</g>
<g>
</g>
<g>
</g>
</svg>
